<?xml version="1.0" encoding="UTF-8" standalone="no"?>
<!-- Generator: Adobe Illustrator 24.3.0, SVG Export Plug-In . SVG Version: 6.00 Build 0)  -->

<svg
   version="1.1"
   id="Layer_1"
   x="0px"
   y="0px"
   viewBox="0 0 511.99234 139.47795"
   xml:space="preserve"
   sodipodi:docname="China_Pacific_Insurance_Company.svg"
   width="511.99234"
   height="139.47795"
   inkscape:version="1.4 (86a8ad7, 2024-10-11)"
   xmlns:inkscape="http://www.inkscape.org/namespaces/inkscape"
   xmlns:sodipodi="http://sodipodi.sourceforge.net/DTD/sodipodi-0.dtd"
   xmlns="http://www.w3.org/2000/svg"
   xmlns:svg="http://www.w3.org/2000/svg"><defs
   id="defs1" /><sodipodi:namedview
   id="namedview1"
   pagecolor="#ffffff"
   bordercolor="#000000"
   borderopacity="0.25"
   inkscape:showpageshadow="2"
   inkscape:pageopacity="0.0"
   inkscape:pagecheckerboard="0"
   inkscape:deskcolor="#d1d1d1"
   inkscape:zoom="1.5292969"
   inkscape:cx="256"
   inkscape:cy="69.639847"
   inkscape:window-width="1920"
   inkscape:window-height="1001"
   inkscape:window-x="-9"
   inkscape:window-y="-9"
   inkscape:window-maximized="1"
   inkscape:current-layer="Layer_1" />
<style
   type="text/css"
   id="style1">
	.st0{fill:#00499A;}
</style>
<g
   id="XMLID_1_"
   transform="translate(0.02234959,-186.24206)">
	<path
   id="XMLID_2_"
   class="st0"
   d="m 34.26,194.02 c 17.81,-9.54 39.69,-10.38 58.07,-2.1 15.99,7.15 28.89,21.04 34.78,37.59 5.75,16.41 4.91,34.92 -2.52,50.49 -8.98,19.22 -28.33,33.66 -49.51,36.33 -10.52,1.68 -21.46,0.28 -31.56,-3.09 0,4.07 0,8.42 0,12.48 -3.09,0 -6.03,0 -8.98,0 0,-16.55 0,-33.1 0,-49.65 5.75,6.59 13.46,12.06 22.3,14.03 15.99,4.07 33.8,-3.65 42.36,-17.81 8.56,-13.18 7.71,-31.28 -1.68,-43.9 -8.84,-12.48 -25.53,-18.93 -40.39,-15.15 -8.84,2.1 -16.55,7.15 -22.3,14.17 -0.57,-10.95 -0.57,-22.17 -0.57,-33.39 z" />
	<path
   id="XMLID_3_"
   class="st0"
   d="m 181.53,198.92 c 2.95,0 6.03,0 8.84,-0.14 0.14,5.05 -0.28,10.1 -0.98,15.15 9.96,0 19.78,0 29.73,0 0,2.52 0,5.05 0,7.71 -7.15,0 -14.31,0 -21.46,0 2.95,12.34 10.1,24.12 21.46,30.16 0,3.23 0,6.59 0,9.96 -16.69,-6.87 -27.49,-23.56 -30.86,-40.96 -1.4,4.77 -2.52,9.4 -4.21,14.03 4.07,5.75 7.29,12.48 9.54,19.07 -3.23,0 -6.45,0 -9.68,0 -1.4,-3.65 -2.95,-7.01 -4.63,-10.38 -5.47,8.56 -13.89,14.73 -23.14,18.09 0,-3.09 0,-6.03 -0.14,-8.98 12.62,-5.47 20.34,-17.95 22.86,-30.86 -7.71,-0.14 -15.15,0 -22.86,0 0,-2.52 0,-5.05 0,-7.71 8.13,0 16.27,0 24.4,0 0.57,-5.04 0.85,-10.09 1.13,-15.14 z" />
	<path
   id="XMLID_4_"
   class="st0"
   d="m 0.04,252.78 c -0.98,-20.76 9.68,-41.1 25.81,-54.14 0.14,42.36 0,84.57 0,126.93 -8.56,0 -17.25,0 -25.81,0 0,-24.26 0,-48.66 0,-72.79 z" />
	<path
   id="XMLID_5_"
   class="st0"
   d="m 230.62,200.05 c 19.22,0 38.43,0 57.51,0 0,2.52 0,5.05 0,7.71 -7.99,0 -15.99,0 -24.12,0 0,9.26 0,18.23 0,27.49 8.84,0 17.95,0 26.79,0 0,2.66 0,5.61 0,8.42 -8.84,0 -17.95,0 -26.79,0 0,6.31 0,12.62 0,18.79 -3.09,0 -6.31,0 -9.4,0 0,-6.31 0,-12.62 0,-18.93 -8.84,0 -17.95,0 -26.79,0 0,-2.66 0,-5.61 0,-8.42 8.98,0 17.95,0 26.79,0 0,-9.26 0,-18.37 0,-27.49 -7.99,0 -15.99,0 -24.12,0 0.13,-2.52 0.13,-5.05 0.13,-7.57 z" />
	<path
   id="XMLID_6_"
   class="st0"
   d="m 300.19,200.05 c 3.09,0.28 6.59,-0.7 9.4,0.56 3.23,4.49 5.33,9.54 7.57,14.45 -3.09,0 -6.17,0 -9.26,0 -2.24,-5.2 -4.9,-10.24 -7.71,-15.01 z" />
	<path
   id="XMLID_7_"
   class="st0"
   d="m 322.63,198.92 c 2.95,0 6.03,0 8.98,0 0.98,2.66 2.1,5.61 3.09,8.42 4.07,0 8.13,0 12.34,0 0.98,-2.66 2.24,-5.47 3.23,-8.42 2.95,0 6.03,0 8.84,0 -0.98,2.66 -2.1,5.61 -2.95,8.42 2.24,0 4.63,0 6.87,0 0,2.52 0,5.05 0,7.71 -5.75,0 -11.64,0 -17.39,0 0,2.95 0,5.75 0,8.7 5.33,0 10.8,0 15.99,0 0,2.52 0,5.05 0,7.71 -5.33,0 -10.8,0 -15.99,0 0,3.23 0,6.45 0,9.68 6.45,0 12.9,0 19.5,0 0,2.52 0,5.05 0,7.71 -6.45,0 -12.9,0 -19.5,0 0,4.63 0,8.98 0,13.6 -3.09,0 -6.17,0 -8.98,0 0,-4.63 0,-8.98 0,-13.6 -6.31,0 -12.62,0 -18.79,0 0,-2.52 0,-5.05 0,-7.71 6.31,0 12.62,0 18.79,0 0,-3.23 0,-6.45 0,-9.68 -5.47,0 -10.94,0 -16.41,0 0,-2.52 0,-5.05 0,-7.71 5.47,0 10.94,0 16.41,0 0,-2.95 0,-5.75 0,-8.7 -6.03,0 -11.92,0 -17.81,0 0,-2.52 0,-5.05 0,-7.71 2.38,0 4.77,0 7.15,0 -1.41,-2.95 -2.39,-5.61 -3.37,-8.42 z" />
	<path
   id="XMLID_8_"
   class="st0"
   d="m 450.69,200.05 c 7.29,0 14.73,0 21.88,0 0.98,7.71 -0.14,15.71 -4.49,22.3 4.63,8.7 4.63,19.22 0.98,28.33 -2.95,0 -6.03,0 -8.84,0 3.79,-8.98 4.77,-19.78 -0.7,-28.33 3.09,-4.21 4.63,-9.54 5.05,-14.87 -2.24,0 -4.21,0 -6.45,0 0,18.09 0,36.05 0,54.14 -2.52,0 -5.05,0 -7.71,0 0.28,-20.62 0.28,-41.1 0.28,-61.57 z" />
	<path
   id="XMLID_9_"
   class="st0"
   d="m 471.02,222.07 c 5.47,-6.17 8.56,-14.03 9.68,-22.02 5.75,0 11.78,0 17.81,0 1.82,7.99 6.45,15.57 13.46,20.2 0,2.95 0,5.75 0,8.7 -9.26,-4.07 -16.27,-12.48 -19.64,-21.88 -1.68,0 -3.23,0 -4.91,0 -2.38,7.99 -6.31,16.55 -14.03,21.04 -0.82,-2.12 -1.67,-4.08 -2.37,-6.04 z" />
	<path
   id="XMLID_10_"
   class="st0"
   d="m 396.13,200.05 c -2.95,0 -5.75,0 -8.84,0 -2.1,8.42 -7.01,15.71 -14.31,20.48 0,3.09 0,6.31 0,9.54 2.95,-1.68 6.03,-3.37 8.7,-5.47 0,12.34 0,24.54 0,36.89 2.66,0 5.61,0 8.42,0 0.14,-15.01 -0.14,-30.01 0.14,-45.02 2.24,-5.34 5.18,-10.67 5.89,-16.42 z" />
	<path
   id="XMLID_11_"
   class="st0"
   d="m 429.09,236.23 c 3.09,0 6.17,0 9.26,0 0,-2.52 0,-5.05 0,-7.71 -6.17,0 -12.06,0 -18.09,0 0,-1.4 0,-2.66 0,-4.07 5.05,0.28 11.5,-0.84 13.6,-6.17 2.1,-5.75 1.68,-12.34 1.54,-18.37 -12.48,0.14 -24.97,0 -37.59,0 0,8.13 0,16.41 0,24.4 4.63,0 8.98,0 13.6,0 0,1.4 0,2.66 0,4.21 -6.17,0 -12.06,0 -18.09,0 0,2.52 0,5.05 0,7.71 3.09,0 6.31,0 9.4,0.14 -0.98,6.59 -3.93,13.18 -9.4,17.25 0,2.66 0,5.47 0,7.99 11.78,-2.95 15.99,-15.85 17.81,-26.51 0.84,8.7 0.14,17.39 0.28,26.09 2.95,0 5.75,0 8.7,0 0.28,-8.7 -0.84,-17.53 0.7,-26.09 1.54,10.52 6.17,22.86 17.39,26.51 0,-2.66 0,-5.33 0,-7.99 -5.33,-4.06 -8.13,-10.8 -9.11,-17.39 z m -22.87,-19.21 c 0,-3.37 0,-6.87 0,-10.1 6.87,0 13.89,0 20.76,0 -0.14,3.65 0,9.26 -4.63,9.96 -5.47,0.56 -10.94,0 -16.13,0.14 z" />
	<path
   id="XMLID_14_"
   class="st0"
   d="m 233.85,211.27 c 3.09,0 6.31,0 9.4,-0.14 1.54,7.15 3.79,14.03 6.59,20.62 -3.09,0 -6.31,0 -9.4,0 -3.37,-6.46 -5.05,-13.47 -6.59,-20.48 z" />
	<path
   id="XMLID_15_"
   class="st0"
   d="m 275.5,211.13 c 3.09,0 6.31,0 9.4,0 -1.4,7.01 -3.23,14.17 -6.59,20.48 -3.09,0 -6.31,0 -9.4,0 2.95,-6.46 5.19,-13.33 6.59,-20.48 z" />
	<path
   id="XMLID_16_"
   class="st0"
   d="m 300.19,217.02 c 3.09,0 6.17,0 9.4,0 2.95,4.63 5.33,9.54 7.57,14.73 -3.09,0 -6.17,0 -9.26,0 -2.24,-5.05 -4.9,-9.96 -7.71,-14.73 z" />
	<path
   id="XMLID_17_"
   class="st0"
   d="m 482.1,219.82 c 5.61,0 11.22,0 17.11,0 0,2.38 0,4.63 0.14,7.01 -5.75,0 -11.5,0 -17.11,0 -0.14,-2.24 -0.14,-4.62 -0.14,-7.01 z" />
	<path
   id="XMLID_18_"
   class="st0"
   d="m 36.79,241.14 c 4.49,-12.48 17.81,-20.76 30.86,-19.5 13.89,0.7 25.81,12.06 27.77,25.81 -4.63,0 -8.98,0 -13.6,0 -2.38,-7.15 -9.26,-12.9 -17.11,-12.62 -10.24,-0.14 -18.93,10.52 -16.41,20.48 1.68,8.56 10.38,14.73 18.93,13.32 6.87,-0.7 12.06,-6.17 14.31,-12.48 4.63,0 8.98,0 13.6,0.14 -1.68,8.7 -6.31,16.83 -14.03,21.46 -10.38,6.59 -24.97,6.17 -34.78,-1.54 -10.1,-7.72 -14.31,-22.73 -9.54,-35.07 z" />
	<path
   id="XMLID_19_"
   class="st0"
   d="m 474.81,230.76 c 2.38,0 4.91,0 7.29,0 1.68,6.45 2.38,12.9 2.95,19.5 -2.38,0 -4.91,0 -7.29,0.14 -0.57,-6.73 -1.55,-13.19 -2.95,-19.64 z" />
	<path
   id="XMLID_20_"
   class="st0"
   d="m 485.05,230.76 c 2.52,0 5.05,0 7.57,0 1.4,6.17 2.24,12.06 2.66,18.23 2.38,-6.03 4.07,-12.06 5.61,-18.37 2.52,0 4.91,0 7.57,0 -1.54,7.99 -4.07,15.71 -7.15,23 3.65,0 7.15,0 10.52,0 0,2.52 0,5.05 0,7.71 -14.17,0 -28.19,0 -42.08,0 0,-2.52 0,-5.05 0,-7.71 7.99,0 15.85,0 23.84,0 0.56,-1.26 0.84,-2.38 1.4,-3.37 -2.24,0 -4.63,0 -6.87,0 -0.69,-6.58 -1.53,-13.04 -3.07,-19.49 z" />
	<path
   id="XMLID_21_"
   class="st0"
   d="m 307.9,235.11 c 3.09,0 6.03,0 8.98,0 -1.82,8.84 -3.79,17.81 -7.29,26.09 -3.09,0 -6.17,0 -9.26,0 3.09,-8.28 5.89,-16.97 7.57,-26.09 z" />
	<path
   id="XMLID_22_"
   class="st0"
   d="m 164.56,281.26 c 6.45,-4.91 15.29,-4.63 22.86,-2.95 -0.14,2.24 -0.28,4.63 -0.56,6.87 -4.63,-1.4 -9.68,-2.52 -14.17,0 -8.7,4.49 -9.4,18.93 -0.56,23.56 5.05,2.95 11.08,1.4 16.41,-0.14 0.14,2.24 0.14,4.49 0.14,6.59 -8.7,2.95 -19.5,3.09 -26.79,-3.37 -8.55,-8.12 -7.01,-23.97 2.67,-30.56 z" />
	<path
   id="XMLID_23_"
   class="st0"
   d="m 240.02,277.47 c 2.95,0 5.75,0 8.7,0 0,13.18 0,26.23 0,39.41 -2.95,0 -5.75,0 -8.7,0 0,-13.18 0,-26.23 0,-39.41 z" />
	<path
   id="XMLID_24_"
   class="st0"
   d="m 267.37,280.55 c 6.45,-4.21 14.73,-4.07 22.02,-2.52 0,2.38 0,4.77 0,7.01 -4.91,-1.68 -10.94,-2.66 -15.57,0.56 -7.57,4.77 -7.99,17.39 -0.56,22.3 5.05,3.65 11.92,2.24 17.39,0.14 0,2.38 0,4.77 0.14,7.15 -7.99,2.24 -17.11,2.95 -24.4,-1.68 -11.22,-7.01 -10.38,-25.94 0.98,-32.96 z" />
	<path
   id="XMLID_25_"
   class="st0"
   d="m 224.17,278.87 c -7.85,-3.93 -17.11,-2.24 -25.25,-0.84 0,12.9 0,25.81 0,38.71 2.66,0 5.61,0 8.42,0 -0.14,-5.33 0.56,-10.52 -0.56,-15.71 0.7,0.14 2.24,0.56 2.95,0.56 l -1.26,0.56 c 0.56,1.26 1.68,3.65 2.24,4.77 5.05,-0.14 10.8,-0.28 14.87,-3.79 7.43,-5.89 7.43,-19.63 -1.41,-24.26 z m -4.49,18.23 c -2.95,3.23 -7.71,2.52 -11.64,3.79 -2.1,-5.33 -0.56,-11.5 -0.7,-17.11 4.21,-0.14 9.4,-1.26 12.76,2.1 3.37,3.09 2.39,8.28 -0.42,11.22 z" />
</g>
</svg>
