<?xml version="1.0" encoding="UTF-8"?>
<!-- Generator: Adobe Illustrator 19.2.1, SVG Export Plug-In . SVG Version: 6.00 Build 0)  -->
<svg id="layer" width="500" height="500" version="1.1" viewBox="0 0 500 500" xml:space="preserve" xmlns="http://www.w3.org/2000/svg">
<style type="text/css">
	.st0{fill:#0095DA;}
	.st1{fill:#FFFFFF;}
</style>
<rect class="st0" width="500" height="500"/>
<polygon class="st1" transform="translate(-70.300003,-72.199997)" points="502.1 413.1 487 413.1 487 382.8 464.3 382.8 464.3 458.5 487 458.5 487 428.2 502.1 428.2 502.1 504 449.1 504 449.1 337.3 502.1 337.3"/>
<polygon class="st1" transform="translate(-70.300003,-72.199997)" points="433.9 185.8 380.9 185.8 380.9 337.3 433.9 337.3 433.9 382.8 380.9 382.8 380.9 458.5 433.9 458.5 433.9 504 365.8 504 365.8 140.4 433.9 140.4"/>
<polygon class="st1" transform="translate(-70.300003,-72.199997)" points="350.6 269.1 335.4 269.1 335.5 185.8 305.2 185.8 305.2 458.5 335.5 458.5 335.5 337.3 350.6 337.3 350.6 504 290 504 290 140.4 350.6 140.4"/>
<polygon class="st1" transform="translate(-70.300003,-72.199997)" points="274.8 269.1 259.6 269.1 259.7 185.8 221.8 185.8 221.8 337.3 274.8 337.3 274.8 504 206.7 504 206.7 428.2 221.8 428.2 221.8 458.5 259.7 458.5 259.7 382.8 206.7 382.8 206.7 140.4 274.8 140.4"/>
<polygon class="st1" transform="translate(-70.300003,-72.199997)" points="191.5 413.1 176.4 413.1 176.4 382.8 153.6 382.8 153.6 458.5 176.4 458.5 176.2 428.2 191.5 428.2 191.5 504 138.5 504 138.5 337.3 191.5 337.3"/>
</svg>
