<svg xmlns="http://www.w3.org/2000/svg" viewBox="0 0 512 154.15">
  <path fill="#d72e29" d="m87.998 60.633-.754 5.18L91.9 64.9l-.451-5.032-3.452.765zm-9.767 6.095 4.207-1.674-.75-4.267-3.005-.92-1.2-2.74-1.355 1.832-.748 5.175 4.206-.457-1.355 3.05zm1.8-20.574 8.413 3.506-2.098 5.946 4.2-.92 3.47-8.808 6 4.57-5.863 4.547h5.709l1.651 4.723-3.908.15-1.2 5.185 4.657 1.068 1.651 4.415-5.703.76-1.354 9.304-3.155 2.13-1.954-11.89-3.452-.303-2.555 9.91-3.303 2.284-.302-11.435-2.704-.457-1.2-3.193-1.2 1.52-1.806 13.565-7.063-4.878 4.514-1.376-.903-6.397-2.405 2.136-2.103-7.317 4.954-.914-.748-4.723-1.355-.463-2.4-4.266 3.6-1.211 3.458-7.323 2.554 7.014 2.852.457v2.434l4.355-.909-3.303-8.842zM39.402.003v58.119L.002 28.76 39.4 0zM.002 92.945l39.407-28.76v58.118L0 92.944zm42.132-28.716 38.543 29.37-38.543 28.704zm1.453 60.558 39.401-28.754v58.12zM0 90.417v-58.08l38.548 29.04L0 90.416zM42.132 58.13V.05l40.68 29.37-40.685 28.71zM129.293.004l41.372 28.793-41.372 29.327V.005zM85.89 29.42 126.573.05v58.08l-40.69-28.716zm43.404 92.886V64.186l41.372 28.793-41.372 29.328zm-2.725 0L88.02 93.601l38.548-29.37v58.08zm-40.85 31.85v-58.12l39.408 28.776-39.412 29.344zm44.439-92.777 40.508-29.023v58.081L130.15 61.38zM49.52 25.22v11.55c0 .518.413.936.914.936h12.1a.925.925 0 0 0 .915-.936V25.224l1.415.848 1.877-3.352a.529.529 0 0 0-.182-.71l-4.068-2.423a4.002 4.002 0 0 0-2.037-.561H59.33a2.901 2.901 0 0 1-2.846 2.626 2.901 2.901 0 0 1-2.841-2.632l-1.129.006a4.002 4.002 0 0 0-2.037.567l-4.063 2.422a.523.523 0 0 0-.187.705l1.877 3.358 1.415-.853zm64.852-7.046h-6.1a.655.655 0 0 0-.622.506c-2.654 11.32 5.637 11.236 5.637 14.644v1.773c0 1.228-4.123 1.37-4.123 2.417v.204h9.408v-.15c0-1.1-4.129-1.243-4.129-2.471v-1.773c0-3.408 8.297-3.325 5.643-14.644a.66.66 0 0 0-.627-.506h-5.082zm36.919 11.6c0-4.845-3.81-8.77-8.506-8.77s-8.5 3.93-8.5 8.77c0 4.844 3.804 8.77 8.5 8.77s8.506-3.931 8.506-8.77zm-14.892-13.708c3.083-1.024 5.748.616 6.012 3.964-2.516 1.222-5.803-.424-6.012-3.964zm6.937 4.052c0-2.224 2.114-3.26 3.765-2.588.065 1.98-1.946 3.36-3.77 2.588zm17.628 39.424c-.848 0-2.081-2.18-5.01-3.441v-3.232a.672.672 0 0 0-.936-.627c-1.14.54-2.89 1.701-3.87 3.006-4.785.192-8.363 4.514-8.363 6.127s3.578 5.935 8.363 6.127c.98 1.31 2.73 2.467 3.864 3.006a.672.672 0 0 0 .947-.627v-3.237c2.924-1.261 4.157-3.441 5.005-3.441.974 0 2.532 3.226 4.613 2.516 1.277-.44.286-3.38-.65-4.35.936-.957 1.927-3.903.65-4.343-2.081-.705-3.64 2.516-4.613 2.516zm-10.168 30.753v-3.138a.688.688 0 0 0-.678-.7h-14.66a.688.688 0 0 0-.678.694v12.19c0 1.64 1.294 2.972 2.88 2.972h10.256a2.929 2.929 0 0 0 2.879-2.973v-.87h.154c2.18 0 3.97-1.838 3.97-4.085a4.04 4.04 0 0 0-3.964-4.09h-.16zm0 6.397v-4.619h.154c1.238 0 2.246 1.04 2.246 2.312 0 1.266-1.008 2.312-2.246 2.312h-.154zm-14.48-12.938a.87.87 0 0 0 .865.886.875.875 0 0 0 .859-.886v-1.712a.881.881 0 0 0-.86-.892.88.88 0 0 0-.863.892v1.706zm5.61 0a.87.87 0 0 0 .86.886.875.875 0 0 0 .864-.886v-2.4a.88.88 0 0 0-.865-.887.88.88 0 0 0-.858.887zm7.328-1.712a.881.881 0 0 0-.859-.892.88.88 0 0 0-.864.892v1.706c0 .496.385.892.864.892a.88.88 0 0 0 .86-.886V82.04zm-32.03.749a.859.859 0 0 0-.831-.727h-5.049a.853.853 0 0 0-.836.727l-.534 3.259c1.145-.7 2.466-1.129 3.892-1.129 1.431 0 2.753.43 3.898 1.129l-.54-3.26zm-6.716 20.209a.859.859 0 0 0 .836.732h5.049a.85.85 0 0 0 .831-.732l.54-3.254a7.482 7.482 0 0 1-3.898 1.123c-1.426 0-2.747-.43-3.898-1.123l.54 3.254zm3.358-16.714c-1.509 0-2.885.561-3.98 1.464-3.257 2.659-3.257 7.636 0 10.295 1.1.903 2.472 1.464 3.98 1.464 1.514 0 2.885-.561 3.98-1.464 3.262-2.657 3.262-7.638 0-10.295a6.232 6.232 0 0 0-3.98-1.464zm-47.56 1.486a1.657 1.657 0 0 0-1.63-1.69h-2.152a1.63 1.63 0 0 1-1.564-1.184 1.64 1.64 0 0 0-1.558-1.189h-5.797c-.725.007-1.36.491-1.558 1.19a1.635 1.635 0 0 1-1.558 1.183h-2.152a1.663 1.663 0 0 0-1.63 1.684v11.198c0 .92.732 1.68 1.63 1.68h16.35a1.657 1.657 0 0 0 1.625-1.68V87.765zm-14.633 5.384c0-2.747 2.164-4.988 4.834-4.988 2.664 0 4.833 2.24 4.833 4.988 0 2.747-2.169 4.982-4.833 4.982-2.67 0-4.834-2.235-4.834-4.982zm1.343 0c0 1.982 1.564 3.595 3.49 3.595 1.927 0 3.485-1.607 3.485-3.595a3.546 3.546 0 0 0-3.484-3.595 3.545 3.545 0 0 0-3.49 3.595zm-27.224 1.833c-.65.7-1.382.143-3.248.793-5.114 1.762-5.918 2.808-5.918 3.138 0 .672 1.211 2.406 7.779 2.406 6 0 3.309-4.751 6.474-9.232.424-.6 1.701-.97 1.701.027v9.15H34c-1.64-11.792 5.765-13.08-1.111-18.249-3.155 1.542-6.442 11.27-7.097 11.97zm-13.68-39.51a2.665 2.665 0 0 1 2.603-2.511c1.388 0 2.494 1.112 2.61 2.51zm10.195 2.389a3.66 3.66 0 0 0-3.402-2.384 4.272 4.272 0 0 0-4.184-4.13 4.267 4.267 0 0 0-4.19 4.13 3.66 3.66 0 0 0-3.396 2.384c-.837 2.306-1.322 4.977-1.322 7.834.006 2.114 1.712 3.765 3.727 3.765h10.35a3.744 3.744 0 0 0 3.727-3.727c0-2.896-.479-5.566-1.31-7.872zm36.412 66.868a3.837 3.837 0 0 1 2.791-1.151c1.08 0 2.037.413 2.698 1.052a4.008 4.008 0 0 1 4.13-.788l.005 7.515a1.349 1.349 0 0 1-1.327 1.37 1.349 1.349 0 0 1-1.332-1.37 1.283 1.283 0 0 0-1.267-1.305 1.288 1.288 0 0 0-1.266 1.305c0 2.202 1.734 3.98 3.865 3.98a3.925 3.925 0 0 0 3.86-3.98v-7.515a4.03 4.03 0 0 1 1.43-.264c1.08 0 2.037.413 2.698 1.052a3.881 3.881 0 0 1 2.698-1.046c1.134 0 2.13.45 2.796 1.145-.44-5.808-5.136-10.388-10.889-10.388-5.747 0-10.455 4.58-10.889 10.388zm10.89-12.437-1.096 1.558h2.19l-1.095-1.558zm23.341 7.58a.374.374 0 0 0-.374.375v11.093c0 1.1.859 1.982 1.921 1.982h9.057a1.949 1.949 0 0 0 1.915-1.982v-11.093a.369.369 0 0 0-.363-.375h-12.16zm11.638-1.392a.716.716 0 0 0 .7-.716.716.716 0 0 0-.7-.727h-.71c-.468-1.486-1.998-2.631-3.925-2.918v-.357a.941.941 0 0 0-.93-.953.936.936 0 0 0-.925.953v.357c-1.927.287-3.458 1.432-3.926 2.918h-.715a.716.716 0 0 0-.694.721.716.716 0 0 0 .7.722h11.125zM21.825 36.979c.38.919 1.322 1.569 2.423 1.569a2.648 2.648 0 0 0 1.998-.898 2.66 2.66 0 0 0 1.993.892c1.1 0 2.042-.65 2.422-1.569.384.327.872.506 1.376.507 1.151 0 2.081-.881 2.081-1.966a1.872 1.872 0 0 0-.082-.523l.01-.11-.247-.837-3.942-7.36c0-2.863 1.729-4.25.248-6.045-.077-.077-.187-.11-.275-.176l.347-1.222a.826.826 0 0 0-.545-1.024.787.787 0 0 0-.991.561l-.347 1.211a2.45 2.45 0 0 0-1.597.65l-.457.44-.462-.44a2.439 2.439 0 0 0-1.597-.644l-.341-1.217a.787.787 0 0 0-.991-.562.826.826 0 0 0-.55 1.024l.346 1.223c-.088.066-.193.099-.275.176-1.475 1.795.242 3.226.242 6.089l-3.93 7.316-.248.837.01.11c-.052.17-.08.346-.082.523 0 1.085.93 1.966 2.075 1.966.506 0 .996-.18 1.382-.507zM280.77 82.015V55.628a.562.562 0 0 0-.556-.573h-14.81a.568.568 0 0 0-.555.568c-.15 8.796-.347 17.593-.595 26.387a.55.55 0 0 0 .55.572h15.416a.562.562 0 0 0 .556-.567zm25.331-.501c1.211 0 2.197.952 2.197 2.13v9.42a2.164 2.164 0 0 1-2.203 2.136h-4.822a2.164 2.164 0 0 0-2.191 2.125v26.431a2.17 2.17 0 0 1-2.202 2.136h-13.356a2.17 2.17 0 0 1-2.197-2.136V97.331a2.164 2.164 0 0 0-2.197-2.13h-14.5c-2.049 0-2.098 1.96-2.137 2.378-.925 11.655-4.239 21.07-9.948 28.242a2.224 2.224 0 0 1-2.444.683l-8.864-2.973a2.125 2.125 0 0 1-1.343-2.78c2.538-6.816 4.26-14.545 5.164-23.215a2.164 2.164 0 0 0-2.203-2.334h-3.925a2.164 2.164 0 0 1-2.196-2.137v-9.42c0-1.177.985-2.13 2.196-2.13h4.757a2.175 2.175 0 0 0 2.196-2.097c.177-8.996.276-17.033.287-24.13a2.158 2.158 0 0 0-2.191-2.124h-2.357a2.164 2.164 0 0 1-2.19-2.13v-9.542c0-1.178.98-2.136 2.19-2.136h8.209c-2.494-3.011-4.24-6.44-5.263-8.825-.617-1.425.462-3 2.059-3h13.807c1.013 0 1.905.672 2.158 1.624 1.376 5.296 2.697 8.401 3.66 10.201H277c.82 0 1.563-.44 1.949-1.145a31.563 31.563 0 0 0 1.574-3.292 53.178 53.178 0 0 0 1.839-5.638 2.19 2.19 0 0 1 2.136-1.618l13.576.088c1.514.011 2.571 1.475 2.06 2.857-1.08 2.885-2.335 5.269-3.767 7.152a13.097 13.097 0 0 1-1.233 1.596h7.713c1.211 0 2.197.958 2.197 2.136v8.776a2.95 2.95 0 0 1-3.419 2.862c-1.321-.187-2.538.678-2.538 1.971V79.38c0 1.173.98 2.131 2.191 2.131h4.828zm-77.065-53.985c1.211 0 2.186.952 2.186 2.125v71.734c-.144 3.815-.925 19.731-16.318 19.731h-7.576a1.575 1.575 0 0 1-1.536-1.172l-2.059-8.253a1.547 1.547 0 0 1 1.377-1.9c2.438-.264 6.634-.902 8.048-2.273.7-.677.942-2.031.87-3.936V86.894a.088.088 0 0 0-.12-.077l-3.403 1.392a.82.82 0 0 1-1.09-.49l-3.87-12.094a.782.782 0 0 1 .451-.958l7.35-3.122c.41-.173.678-.573.682-1.018v-18.8c0-.606-.506-1.102-1.128-1.102h-4.008a1.354 1.354 0 0 1-1.355-1.123l-1.74-10.58a1.343 1.343 0 0 1 1.355-1.542h5.748c.622 0 1.128-.49 1.128-1.101V29.66c0-1.172.98-2.125 2.191-2.125h12.811zm176.58 51.15c.98 0 1.778.826 1.778 1.844v10.454c0 2.516-37.899 27.543-84.915 35.597a3.65 3.65 0 0 1-3.991-2.395c-2.01-5.373-2.72-8.06-3.82-9.926a1.096 1.096 0 0 1 .71-1.635c4.927-.93 19.02-2.896 34.177-7.641a89.682 89.682 0 0 0-3.105-3.023c-.544-.51-.444-1.4.199-1.778a899.318 899.318 0 0 0 7.69-4.437 3.854 3.854 0 0 1 4.36.308 84.669 84.669 0 0 1 4.526 3.876c4.014-1.75 7.928-3.727 11.6-5.979.936-.572.54-2.07-.55-2.07h-17.303c-.136.002-.271.03-.397.083-2.053.848-20.255 8.351-28.478 11.027a3.573 3.573 0 0 1-4.184-1.646c-1.882-3.193-4.448-6.893-6.089-8.82a1.096 1.096 0 0 1 .44-1.734c6.42-2.323 29.96-9.337 41.302-17.424a190.55 190.55 0 0 1-37.794 10.68 3.639 3.639 0 0 1-3.991-2.384c-2.01-5.378-2.72-8.07-3.821-9.942-.386-.65-.022-1.487.704-1.624 4.564-.86 17-2.61 30.863-6.634-1.596-1.79-3.55-3.661-4.756-4.779-.544-.51-.445-1.4.198-1.778 1.817-1.046 5.147-2.951 7.586-4.377a3.865 3.865 0 0 1 4.51.435c1.893 1.651 4.426 3.947 6.375 5.725 5.08-2.037 10.075-4.442 14.677-7.267.935-.572.54-2.07-.55-2.07H346.81c-.21 0-.39.055-.561.166-1.751 1.145-12.227 7.944-18.68 10.713a3.556 3.556 0 0 1-4.449-1.553c-1.9-3.21-4.47-6.898-6.083-8.77a1.08 1.08 0 0 1 .358-1.679c5.687-2.565 25.6-10.625 34.66-19.56a3.914 3.914 0 0 1 3.062-1.123l12.893.974c2.092.16 2.477 1.393 1.745 2.037l-4.168 3.65c-.76.666-.308 1.95.689 1.95h34.194c1.007 0 1.816.858 1.778 1.898-.1 2.968-.28 8.545-.28 10.405 0 1.586-13.269 12.145-34.86 21.746l12.303.925c.953.072 1.338 1.31.611 1.95l-4.167 3.655c-.76.66-.309 1.948.688 1.948h29.073zm104.6 0c1 .021 1.794.845 1.778 1.844v10.454c0 2.516-37.899 27.543-84.915 35.597a3.655 3.655 0 0 1-3.997-2.395c-2.003-5.373-2.714-8.06-3.815-9.926a1.096 1.096 0 0 1 .71-1.635c4.928-.93 19.02-2.896 34.178-7.641a89.682 89.682 0 0 0-3.105-3.023c-.544-.51-.444-1.4.199-1.778a899.318 899.318 0 0 0 7.69-4.437 3.854 3.854 0 0 1 4.36.308 84.669 84.669 0 0 1 4.526 3.876c4.014-1.75 7.928-3.727 11.6-5.979.936-.572.54-2.07-.55-2.07h-17.31c-.135.002-.27.03-.396.083-2.053.848-20.255 8.351-28.478 11.027a3.573 3.573 0 0 1-4.184-1.646c-1.882-3.193-4.448-6.893-6.089-8.82a1.096 1.096 0 0 1 .44-1.734c6.42-2.323 29.956-9.337 41.302-17.424a190.55 190.55 0 0 1-37.794 10.68 3.639 3.639 0 0 1-3.991-2.384c-2.01-5.378-2.72-8.07-3.821-9.942-.386-.65-.022-1.487.704-1.624 4.564-.86 17-2.604 30.863-6.634-1.596-1.79-3.55-3.661-4.756-4.779-.544-.51-.445-1.4.198-1.778 1.817-1.046 5.147-2.951 7.586-4.377a3.865 3.865 0 0 1 4.51.435c1.893 1.651 4.425 3.947 6.374 5.725 5.082-2.037 10.075-4.442 14.677-7.267.936-.572.54-2.07-.55-2.07h-26.756c-.21 0-.391.055-.562.166-1.75 1.145-12.227 7.944-18.68 10.713a3.556 3.556 0 0 1-4.448-1.553c-1.9-3.21-4.47-6.898-6.083-8.77a1.079 1.079 0 0 1 .358-1.679c5.687-2.565 25.6-10.625 34.66-19.56a3.914 3.914 0 0 1 3.062-1.123l12.888.974c2.097.16 2.477 1.393 1.75 2.037l-4.173 3.65c-.754.666-.302 1.95.694 1.95h34.194c1.008 0 1.811.858 1.778 1.898a515.668 515.668 0 0 0-.28 10.405c0 1.586-13.268 12.145-34.86 21.746l12.304.925c.952.072 1.337 1.31.61 1.95l-4.167 3.655c-.76.66-.308 1.948.688 1.948h29.073z"/>
</svg>
